<?xml version="1.0" encoding="UTF-8" standalone="no"?>
<!--********* Copyright (c) 2024 Pareto Softare, LLC DBA Simplemaps.com ***************************************
************* Free for Commercial Use, full terms at  https://simplemaps.com/resources/svg-license ************
************* Attribution is appreciated! https://simplemaps.com *******************************************-->

<svg
   baseprofile="tiny"
   fill="#6f9c76"
   height="1000"
   stroke="#ffffff"
   stroke-linecap="round"
   stroke-linejoin="round"
   stroke-width=".5"
   version="1.2"
   viewbox="0 0 1000 1000"
   width="1000"
   id="svg65"
   sodipodi:docname="image1.svg"
   inkscape:version="1.1.2 (0a00cf5339, 2022-02-04)"
   xmlns:inkscape="http://www.inkscape.org/namespaces/inkscape"
   xmlns:sodipodi="http://sodipodi.sourceforge.net/DTD/sodipodi-0.dtd"
   xmlns="http://www.w3.org/2000/svg"
   xmlns:svg="http://www.w3.org/2000/svg">
  <defs
     id="defs69" />
  <sodipodi:namedview
     id="namedview67"
     pagecolor="#ffffff"
     bordercolor="#666666"
     borderopacity="1.0"
     inkscape:pageshadow="2"
     inkscape:pageopacity="0.0"
     inkscape:pagecheckerboard="0"
     showgrid="false"
     inkscape:zoom="0.6151829"
     inkscape:cx="499.85135"
     inkscape:cy="499.85135"
     inkscape:window-width="1850"
     inkscape:window-height="1016"
     inkscape:window-x="70"
     inkscape:window-y="27"
     inkscape:window-maximized="1"
     inkscape:current-layer="svg65" />
  <path
     d="m 144.4,303.6 0.5,-0.2 2.6,-1.3 2.3,-0.7 2.5,0.3 2.7,0.7 h 1.8 l 0.8,-0.2 0.2,-0.1 V 302 l 0.2,-1.8 0.1,-0.9 0.5,-0.7 0.8,-0.5 5.8,-1.5 h 1.2 l 1.6,0.3 4.2,1.6 10.4,5.9 1.3,1.2 0.6,0.7 0.4,0.8 2,6.4 0.4,0.9 0.4,0.8 0.6,0.7 0.7,0.6 0.8,0.4 1.2,0.5 23.1,5 11.2,5.8 5.3,3.8 1.7,1 3.7,1.4 3.8,0.6 4.5,0.1 2.8,0.7 1.7,0.7 0.7,0.7 3.5,5.4 1.1,1.3 2.1,1.7 3.6,1.8 12.5,3.6 1.7,0.9 5.8,4.5 1.8,0.5 13.3,1.6 2,0.6 h 1.4 l 1.5,-0.2 2.2,-0.8 1.2,-0.7 0.9,-0.7 0.7,-0.5 1,-0.4 h 1.2 l 6.9,2.6 3.2,0.8 h 1.8 l 13.6,-3 h 1.9 l 2.7,0.4 1.5,0.4 1.1,0.6 3.1,2.1 0.9,0.3 1.1,0.2 6.6,0.1 1.7,0.2 1.3,0.4 7.9,5.1 2,0.6 1.1,0.2 8.1,0.3 11.2,3.4 1,0.1 h 1.7 l 2.6,-0.5 2,-0.7 0.9,-0.7 0.8,-0.8 0.7,-1.6 0.4,-0.8 0.4,-2.1 1,-1.4 4.8,-5.1 1.4,-1.9 0.8,-1.6 0.3,-1 2.4,-1.8 8.3,-2.2 5.1,6.2 0.8,1.6 0.6,1.9 0.1,1.2 -0.3,4 0.2,4.3 0.4,1.5 0.4,1.1 3.8,4.7 0.6,1.1 0.3,1.2 -0.1,1.3 -0.4,1 -0.5,0.5 -0.7,0.2 -1.4,0.3 -1.6,0.6 -0.8,0.4 -0.7,0.6 -0.5,1.3 -0.4,1.9 0.1,7.9 -0.1,1.2 v 0.1 l -0.7,7.8 -1.1,3.9 -0.8,1.9 -1.8,3.2 -0.7,2.2 -4.5,20.7 -1.2,3.2 -4.7,5.6 -5.3,4.9 -5.8,4.3 -4.7,4.3 -2.6,4.1 -8.4,25.3 -5,-2.7 -2.1,-1.4 -8.7,-7.3 -1.6,-1 -8.6,-2.7 -2.8,-0.4 -1.1,0.1 -1.9,0.5 -1.5,0.1 -2.1,-0.2 -6.1,-1.1 -1.7,-0.2 -3.9,1 -3.4,0.2 -3.5,-0.2 -3.8,-1 -5,-3 -8.6,-4 -2.3,-0.6 -1.7,-0.1 -0.8,0.3 -1.6,0.8 -3,2.3 -1.6,0.9 -0.8,0.3 -2.1,0.4 -9.9,0.1 -1.5,0.4 -1.7,0.8 -10.3,7.5 -1.1,0.5 -1.6,0.4 -2.8,0.5 -1.6,-0.2 -1.4,-0.4 -3.4,-1.6 -1.4,-0.1 -1.1,0.2 -2.4,1.4 -2.7,1 -4.1,0.7 -1.5,-0.1 -5.6,-1 -2.1,-0.1 -1.6,0.2 -0.8,0.4 -1.4,1.1 -1.2,1.3 -0.5,0.7 -1.5,1.4 -0.7,0.4 -3.7,1.2 -0.9,0.4 -0.7,0.5 -0.6,0.7 -0.8,1.5 -0.1,0.4 -0.1,0.1 -1,2.7 -0.5,0.9 -1.1,1.5 -0.6,0.6 -1.6,1.1 -27.3,4.1 -0.7,0.6 -0.5,0.8 -0.4,0.9 -0.2,1.1 -0.6,3.8 -0.7,1 -1.2,1 -2.3,1.1 -1.4,0.2 -1.2,-0.3 -0.8,-0.5 -13.8,-1.4 -1.9,-0.4 -1.6,-1.1 -3.2,-0.9 -3.8,-0.4 -1.9,-0.5 -1.2,-0.5 -0.4,-0.6 -0.2,-0.4 -1,-3.2 -0.8,-1.6 -0.6,-0.8 -0.6,-0.6 -3.5,-1.9 -0.7,-0.5 -0.7,-0.6 -4.3,-5.1 -0.5,-0.6 -0.7,-0.6 -1,-0.7 -1.8,-0.7 -1.3,-0.3 -8,0.5 -4.6,0.9 h -0.1 l -0.9,-4.1 -0.4,-4.2 v -0.1 -0.4 l 1.6,-2 3.9,-8.3 10,-14.5 0.8,-5.7 -1.7,-5.4 -10.7,-14.4 -1.8,-3.9 0.9,-3.8 3.5,-5.8 1.6,-7.1 0.5,-8.4 -0.6,-7.9 -1.5,-5.8 -5,-5.6 -1.9,-3.8 1,-3.8 4.3,-4.9 2.5,-1.8 3.5,-1.5 7.4,-1.5 3.8,-1.6 1.6,-2.6 9.5,-28.5 1.4,-8.1 -1.1,-8.3 -4.2,-5.2 z"
     id="UYPA"
     name="Paysandú"
     style="fill:#ff0000;stroke:#000000;stroke-opacity:1;stroke-width:7.3;stroke-miterlimit:4;stroke-dasharray:none" />
  <path
     d="m 182,172 -0.4,-3.3 -1,-4.8 -1.5,-6.4 -1.3,-4.1 -3.5,-7.6 -2.3,-3.5 -3.5,-7.1 -0.7,-7.1 2,-6.6 4.3,-5.4 31,-28.4 3.4,-5.9 1.1,-7 -2.2,-7.9 -0.7,-4 6.2,-0.4 2.5,2.4 3.1,9.5 4.9,3.3 3.9,0.4 6.9,-1.2 3.8,-0.1 2.1,1.1 2.3,3.7 2.5,0.6 1.5,-0.8 3.6,-3.2 2,-0.9 3.1,0.1 2,1.3 1.6,1.5 2.3,1 1.3,-0.5 1.9,-2.4 0.9,-0.4 1.3,0.6 1.9,2.1 0.8,0.6 5.1,-1.1 4.5,-3.6 3.2,-5.2 0.8,-5.7 1.2,-4.6 3.3,-5.9 4.3,-5.2 4,-2.8 1.5,0.2 3,1.4 h 1.6 l 3.1,-1.6 1.1,-0.4 5.8,-1.1 3.1,-0.1 7.6,2.1 5.8,-1 6,-0.2 5.7,4 2.9,4.9 1.5,1.9 9.8,6.7 4.8,2.3 2.7,1.9 2.4,2.3 1.4,2.4 0.5,3.7 -0.5,1.9 0.2,1.2 2.5,1.6 1.6,0.4 1.5,-0.1 1.6,0.2 1.6,1.1 0.9,1 1.4,2.3 5.8,6.7 2,1.6 2.6,2.4 8.4,5.4 2.6,2.7 3.8,6.4 2.2,3.1 2.1,1.8 7.3,4.1 9.2,7.8 5.1,2.6 3.2,3 4.9,6 0.9,2 0.5,1.9 0.6,1.8 1.8,1.5 3,2 1.4,1.3 1,1.5 5.2,10.2 2.4,3 10.3,8.3 2.5,5.1 1,5.4 v 0.1 l -0.8,5.4 -2.7,5 -0.7,4 -0.1,12 -0.9,8.3 v 4 l 0.8,1.3 -0.2,-0.1 -5.8,-4.6 -1.2,-1.3 -1.6,-2.1 -1.2,-1.4 -4,-3.4 -1.8,-2.2 -2.4,-3.8 -1.1,-1.4 -3.2,-2.8 -2.6,-1.6 -1,-0.4 -24.9,-5.5 -8.8,-3.2 -1.2,-0.3 -1.6,-0.2 -2.8,0.3 -1.6,0.4 -1.1,0.5 -0.6,0.7 -0.6,0.7 -0.9,1.7 -1.1,2.7 -0.9,1.7 -0.6,0.7 -1.4,1.2 -0.7,0.4 -3.5,1.4 -1.6,1 -0.6,0.6 -2.3,2.8 -0.7,0.5 -0.7,0.5 -1.9,0.6 -5.2,0.7 -1.8,0.6 -1.5,0.9 -9.2,7.8 -1.4,0.7 -1.8,0.7 -1.9,0.5 -7.6,0.7 -3.7,1.1 -2.2,-0.1 -17.8,-3.3 -3.8,-0.2 -10.4,1.3 -1,0.4 -1.5,0.8 -4.2,3.3 -0.9,0.4 -0.9,0.3 -1,0.1 -1.6,-0.1 -9.5,-2.9 -3.8,-2 -2.9,-2.1 -7.3,-7.2 v -0.1 l -2.4,-2 -1.2,-0.7 -7.5,-2.4 -20.8,-11.1 -5.2,-3.7 -0.9,-1 -2.6,-1.9 -1.3,-0.6 -1.6,-0.4 -3.3,-0.5 h -5.5 l -1.4,-0.2 -1.5,-0.5 -1.9,-1.3 -1,-0.8 -0.8,-0.9 -2.6,-3.6 -1.1,-1.3 -2.7,-2.5 -10.2,-7.6 -2.1,-1.3 -1.7,-0.6 -4.3,-0.5 -1.6,0.1 -1.1,0.8 -0.8,0.7 z"
     id="UYAR"
     name="Artigas"
     style="fill:#ff0000;stroke:#000000;stroke-opacity:1;stroke-width:7.3;stroke-miterlimit:4;stroke-dasharray:none" />
  <path
     d="m 144.4,303.6 -1.9,-1.4 -3.8,-4.7 2,-5.7 3,-2.5 5.9,-3.6 2.5,-2.2 1.5,-3.4 0.8,-8.4 1.4,-3.8 1.1,-1.2 2.6,-2 1.1,-1.2 3.3,-7 1.5,-2.1 v -4.8 l -1,-8.1 2,-8.1 3.9,-6.1 3,-6.3 -1.3,-8.6 -6.6,-9.8 -1,-2.1 1.2,-3.2 2.9,-2 6.7,-1.7 3.6,0.4 2,-0.7 0.8,-2.8 0.9,-4.4 0.2,-1.9 -0.1,-7.7 -0.6,-4.5 3.8,-5.6 0.8,-0.7 1.1,-0.8 1.6,-0.1 4.3,0.5 1.7,0.6 2.1,1.3 10.2,7.6 2.7,2.5 1.1,1.3 2.6,3.6 0.8,0.9 1,0.8 1.9,1.3 1.5,0.5 1.4,0.2 h 5.5 l 3.3,0.5 1.6,0.4 1.3,0.6 2.6,1.9 0.9,1 5.2,3.7 20.8,11.1 7.5,2.4 1.2,0.7 2.4,2 v 0.1 l 7.3,7.2 2.9,2.1 3.8,2 9.5,2.9 1.6,0.1 1,-0.1 0.9,-0.3 0.9,-0.4 4.2,-3.3 1.5,-0.8 1,-0.4 10.4,-1.3 3.8,0.2 17.8,3.3 2.2,0.1 3.7,-1.1 7.6,-0.7 1.9,-0.5 1.8,-0.7 1.4,-0.7 9.2,-7.8 1.5,-0.9 1.8,-0.6 5.2,-0.7 1.9,-0.6 0.7,-0.5 0.7,-0.5 2.3,-2.8 0.6,-0.6 1.6,-1 3.5,-1.4 0.7,-0.4 1.4,-1.2 0.6,-0.7 0.9,-1.7 1.1,-2.7 0.9,-1.7 0.6,-0.7 0.6,-0.7 1.1,-0.5 1.6,-0.4 2.8,-0.3 1.6,0.2 1.2,0.3 8.8,3.2 24.9,5.5 1,0.4 2.6,1.6 3.2,2.8 1.1,1.4 2.4,3.8 1.8,2.2 4,3.4 1.2,1.4 1.6,2.1 1.2,1.3 5.8,4.6 0.2,0.1 0.9,1.4 h 0.2 l -4.2,14.4 -1,2.7 -2,3.8 -1.6,1.6 -2,1.2 -10.9,3.2 -2.1,1 -2.2,1.5 -1.1,1.5 -0.7,1.2 -0.1,1.1 -0.1,1.1 0.4,1.1 0.5,1 2.5,2.6 1.4,1.9 -1,3.4 -1.4,3.2 -1.2,7 -0.4,1.8 -0.6,1.3 -0.7,0.5 -2,2 -1.5,2.1 -1,1.1 -1,0.8 -0.8,0.4 -2.9,1.1 -1.2,0.7 -0.8,1.2 -2.6,5.6 -0.8,1.1 -5.1,4.9 -0.7,1.3 -4.7,12.9 -0.4,1.9 0.3,0.9 0.4,0.8 1.1,1.4 0.9,1.6 0.6,1.8 0.3,2.1 0.5,7.9 0.4,2 0.5,1.9 0.3,2.5 -0.2,5.1 -8.3,2.2 -2.4,1.8 -0.3,1 -0.8,1.6 -1.4,1.9 -4.8,5.1 -1,1.4 -0.4,2.1 -0.4,0.8 -0.7,1.6 -0.8,0.8 -0.9,0.7 -2,0.7 -2.6,0.5 h -1.7 l -1,-0.1 -11.2,-3.4 -8.1,-0.3 -1.1,-0.2 -2,-0.6 -7.9,-5.1 -1.3,-0.4 -1.7,-0.2 -6.6,-0.1 -1.1,-0.2 -0.9,-0.3 -3.1,-2.1 -1.1,-0.6 -1.5,-0.4 -2.7,-0.4 h -1.9 l -13.6,3 h -1.8 l -3.2,-0.8 -6.9,-2.6 h -1.2 l -1,0.4 -0.7,0.5 -0.9,0.7 -1.2,0.7 -2.2,0.8 -1.5,0.2 h -1.4 l -2,-0.6 -13.3,-1.6 -1.8,-0.5 -5.8,-4.5 -1.7,-0.9 -12.5,-3.6 -3.6,-1.8 -2.1,-1.7 -1.1,-1.3 -3.5,-5.4 -0.7,-0.7 -1.7,-0.7 -2.8,-0.7 -4.5,-0.1 -3.8,-0.6 -3.7,-1.4 -1.7,-1 -5.3,-3.8 -11.2,-5.8 -23.1,-5 -1.2,-0.5 -0.8,-0.4 -0.7,-0.6 -0.6,-0.7 -0.4,-0.8 -0.4,-0.9 -2,-6.4 -0.4,-0.8 -0.6,-0.7 -1.3,-1.2 -10.4,-5.9 -4.2,-1.6 -1.6,-0.3 h -1.2 l -5.8,1.5 -0.8,0.5 -0.5,0.7 -0.1,0.9 -0.2,1.8 v 0.1 l -0.2,0.1 -0.8,0.2 H 155 l -2.7,-0.7 -2.5,-0.3 -2.3,0.7 -2.6,1.3 z"
     id="UYSA"
     name="Salto"
     style="fill:#ff0000;stroke:#000000;stroke-opacity:1;stroke-width:7.3;stroke-miterlimit:4;stroke-dasharray:none" />
  <path
     d="m 463.1,225.2 3.9,-0.6 10.3,0.7 4.9,-1 h 3.8 l 1.5,-0.4 1.3,-1 0.7,-1 0.6,-1.1 0.9,-1.1 2.5,-1.7 6,-4.1 2.3,-2.2 1.3,-2.8 1.6,-6.3 2.1,-2.4 3,-0.4 3.8,0.8 3.6,0.3 2,-1.9 0.3,-3.5 -0.6,-7.5 0.8,-3.3 2.5,-2.4 3.3,-0.8 3.3,0.9 4.4,5.2 5.7,3.3 2.5,2.1 3.5,4.3 7.3,6.6 11.7,13.1 2.3,3.5 0.8,3 0.6,6.6 1.1,3.1 1.7,1.7 5.2,3.5 1.8,2.8 2.1,7.6 1.4,3.3 2.5,3 2.6,1.6 6.2,2.4 2.9,1.8 7.5,6.8 3.1,2 2.3,0.5 2.1,-1.2 2.1,-2.9 2.9,-5.9 2,-0.7 2.8,3.5 2.6,4.4 4,5.4 4.6,4.5 6.3,3 2,2.1 1.8,2.4 2,2.1 2.1,1.4 4.8,1.8 26,3.8 h 5.4 l 2.4,0.7 2,2.1 2.8,5.8 1.8,2.5 8.3,6.7 2.3,2.4 1.8,3.4 0.7,3.3 0.2,7.5 1.6,4 v 0.1 l -0.8,1 -2.1,4.4 -0.5,0.8 -1.1,0.7 -1.6,1.7 -1.4,2.1 -0.8,1.8 -0.2,4.4 2.8,8.2 0.7,4.5 -0.8,3.3 -3.7,9.3 -2.2,4 -2,5.4 -5.3,7.7 2.5,2 2.6,0.4 1.9,0.8 0.6,3.1 -1,2.4 -4,3.1 -1.5,2.2 1.5,3 -0.5,3.3 -2.3,2.7 -3.6,1.2 -3.3,0.4 -3.3,0.9 -2.3,-2.6 -1.1,-1.7 -1.9,-4.3 -2,-3 -5.8,-5.8 -2.5,-3.7 -6.6,-7.5 -2.7,-4.9 -2.3,-2.6 -4.3,-3.5 -0.6,-0.6 -3.2,-4.5 -0.6,-0.6 -0.6,-0.6 -3.6,-1.8 -6.8,-2.6 -1.9,-0.4 -12.1,-1.1 -3.1,-1 -6,-2.8 -2.5,-0.5 -4.8,-0.2 -6.5,0.8 -9.7,-0.8 -15.4,-3.9 -4.5,-0.5 -2.3,0.2 -3.9,0.9 -13.8,1 -4.3,-0.5 -4.4,-1 -1.1,-0.1 -1,0.2 -2.6,1.1 -1,0.2 h -1.1 l -1.1,-0.1 -1.2,-0.7 -1.2,-1.1 -1.7,-2.5 -1.5,-2.7 -0.6,-1.8 -0.1,-1.1 0.3,-3.3 -0.1,-1 -0.4,-0.8 -0.9,-1.6 -0.4,-0.8 -0.2,-1 -0.1,-1.2 0.2,-2.4 0.5,-2.2 1.3,-3.9 0.2,-1.1 0.1,-1.1 -0.3,-1 -0.6,-1.8 -1.4,-6 -0.7,-1.8 -0.9,-1.6 -1,-0.8 -1.4,-1 -3,-1.3 -5.2,-1.7 -1.1,-0.5 -1.2,-0.8 -5.2,-5 -0.7,-0.8 -0.4,-0.7 -0.6,-1.2 V 302 l -0.4,-0.6 -2.3,-7.2 -0.1,-1 0.2,-3.5 -0.1,-2.3 -0.3,-1 -0.6,-1.8 -1.7,-3.3 -0.6,-0.8 -0.8,-0.9 -2.6,-2 -11.4,-4.8 -7.5,-4.3 -12.9,-10.3 -0.8,-0.4 -2.3,-0.6 h -3 l -1.1,0.2 -2.6,1.1 -2,1.8 -3.7,5.8 -1.4,-1.9 -2.5,-2.6 -0.5,-1 -0.4,-1.1 0.1,-1.1 0.1,-1.1 0.7,-1.2 1.1,-1.5 2.2,-1.5 2.1,-1 10.9,-3.2 2,-1.2 1.6,-1.6 2,-3.8 1,-2.7 z"
     id="UYRV"
     name="Rivera"
     style="fill:#ff0000;stroke:#000000;stroke-opacity:1;stroke-width:7.3;stroke-miterlimit:4;stroke-dasharray:none" />
  <path
     d="m 854.1,604.1 -2.5,8.6 0.1,13.8 3.5,28.3 -3.6,31.1 -0.5,16.8 4.5,7.8 h 3.2 l 2.8,-0.6 h 2.6 l 2.5,1.9 1.5,3 1.2,3.4 1.9,2.1 5.1,-0.3 -2.7,1.9 -2.9,2.6 -5.7,7 -3.5,6.2 -2,6.6 -3.1,15.7 -3,9.5 -0.8,8.7 -1.5,2.7 -5.5,3.8 -2.7,2.4 -7.6,9.9 -8.4,6.5 -2.8,3.3 -5.6,11.1 -1.4,1.9 -0.4,2.1 -3.4,10.9 2.6,7 -0.2,3.4 -6.5,2 -14.5,8.2 -11.6,8.2 -23.9,23.5 -2,2.6 -0.6,3.3 0.1,2.9 -0.9,2.1 -14.3,3.3 -3.6,0.2 0.7,-1.6 0.9,-1.2 2.7,-2.5 -1.1,-0.9 -1,-1.2 -0.7,-1.5 -0.4,-1.6 0.3,-2.4 1.6,-4.6 0.4,-0.8 -2.4,-2.4 -4.2,-1.8 -4.5,-1.1 -3.1,-0.1 1.8,1.3 5.8,2.6 -1.2,2.4 -2.6,2.7 -2.9,2 -2.4,0.9 -1,1.3 v 2.6 l 1.1,2 2.6,-0.4 -0.2,-1.5 2.3,0.5 2.9,2.4 1.4,4.2 -1.2,2.5 -2.9,2.4 -35.2,19 -0.1,-0.2 -0.7,-2 -0.2,-1.1 0.1,-1.5 0.6,-1.9 0.7,-1.1 1.2,-1.6 0.4,-0.8 0.1,-0.9 -0.1,-1 -2.1,-7.1 -0.3,-2.2 -0.4,-7.6 0.4,-4.2 1.4,-5.1 0.5,-1.3 2.4,-4.2 0.8,-2 0.2,-1.1 0.2,-1.3 -0.1,-1.6 -0.7,-2.3 -0.6,-1.2 -1.4,-1.7 -0.5,-0.8 -0.2,-1.4 -0.4,-5 -0.3,-1.7 -0.5,-1.2 -1.1,-1.6 -0.3,-1.3 -0.2,-1.9 0.2,-3.7 0.4,-2.3 1.2,-2.4 1.1,-0.5 h 1 l 0.9,0.3 0.9,0.2 0.7,-0.2 0.4,-0.3 0.4,-0.6 0.8,-5.4 0.6,-11.4 -0.4,-4.4 -0.6,-3.2 -0.4,-11.7 1.6,-10.4 0.3,-1.1 0.4,-1 1.8,-3.6 0.3,-1.1 0.4,-2 0.1,-0.9 -3.3,-32.1 3.8,-6.1 4.8,-5.5 0.6,-1.2 0.4,-2.2 0.3,-5.7 0.6,-3 0.5,-1.6 0.6,-1.1 1,-1.3 3.5,-5.7 0.7,-2.1 0.3,-1.6 -1.5,-10.8 0.7,-3.9 1.4,-2.9 3.4,-3.7 12.6,-7.4 5.9,-5.4 3.4,-11.6 2.8,-1.3 3.7,-0.1 3.7,-0.6 1.1,-0.6 0.9,-0.7 0.8,-0.8 0.7,-1.2 1.8,-1.7 8.3,-2.1 3.8,-2.4 3.7,-3 3.2,-3.7 4,-8.4 1.6,-1.6 5.4,-1.6 3.7,-2.4 4.9,-7 2.8,-3.1 2.2,-1.2 3.7,-1.7 1.7,-1.7 0.8,-2 0.5,-2.2 0.8,-2.1 1.6,-2.1 0.9,-0.7 12.5,-3.7 11.4,-4.9 14.9,-3.5 z"
     id="UYRO"
     name="Rocha"
     style="fill:#ff0000;stroke:#000000;stroke-opacity:1;stroke-width:7.3;stroke-miterlimit:4;stroke-dasharray:none" />
  <path
     d="m 907.2,543.2 -3.3,4.2 -10.5,7.8 -4.4,4.7 -1.3,3.4 -0.4,7 -1.1,3.4 -1.7,2 -19.1,12.8 -5.4,4.8 -4.4,6 h -0.1 l -1.4,4.8 H 854 l -14.9,3.5 -11.4,4.9 -12.5,3.7 -0.9,0.7 -1.6,2.1 -0.8,2.1 -0.5,2.2 -0.8,2 -1.7,1.7 -3.7,1.7 -2.2,1.2 -2.8,3.1 -4.9,7 -3.7,2.4 -5.4,1.6 -1.6,1.6 -4,8.4 -3.2,3.7 -3.7,3 -3.8,2.4 -8.3,2.1 -1.8,1.7 -0.7,1.2 -3.9,-1.9 -4.1,-2.7 -5.7,-2.3 -3.4,-2 -1.3,-1.1 -2.5,-2.7 -2.3,-4 -1.6,-3.5 -0.5,-0.8 -0.7,-0.6 -0.9,-0.4 -1.5,-0.1 h -1.8 l -4.5,1.2 -1.3,0.5 -5.1,4 -0.8,0.5 -1.8,0.7 -0.8,0.5 -0.7,0.6 -0.6,0.8 -0.3,1 -0.5,2.1 -0.8,1.9 -0.5,0.7 -0.6,0.7 -0.7,0.6 -0.8,0.5 -6.2,2.6 -1.4,0.1 -1.9,-0.2 -10.7,-3.4 -0.8,-0.5 -2.1,-1.8 -0.9,-0.4 -1,-0.3 -12.8,-2.1 -4.7,-1.3 -5.4,-3.7 -4.3,-4.6 -1,-0.7 -1.2,-0.5 -2,-0.5 -2.4,-0.9 -1.2,-0.2 -1.5,0.1 -4.1,1.6 -7,3.6 -1.2,0.3 -1.6,0.1 -2.7,-0.4 -1.4,-0.6 -1.1,-0.7 -0.6,-0.6 -0.9,-0.5 -3.1,-0.9 -1.5,-0.8 -0.5,-0.2 -0.8,0.1 -8.2,1.4 -3,1.4 -7.7,4.5 -3.2,-3.9 -0.3,-1.3 -0.3,-1.9 0.3,-1.2 0.5,-1 0.5,-0.8 0.6,-0.7 2.4,-1.6 1,-1.2 1.2,-2 1.7,-4.5 0.6,-2.4 0.2,-1.8 -1.5,-8.5 -0.2,-6.5 -1.4,-10.2 1.3,-3.9 1.3,-1.7 8.8,-5.7 1.4,-1.2 1.1,-1.3 0.5,-0.7 1.5,-3 v -3.4 l -0.2,-1.2 -2.3,-4 -0.3,-1.6 0.1,-1.4 0.5,-1.1 0.8,-1.3 1,-1.2 0.8,-0.7 3.5,-2 1,-0.8 1.2,-1.2 1.9,-1.4 5.4,-2.2 0.8,-0.4 1.3,-1.2 2.5,-2.7 2.6,-2.4 9.3,-4.7 2,-0.5 4.4,-0.5 5.1,0.1 2.5,-0.6 7.3,-3 1.4,-0.2 h 2.1 l 2.1,0.5 2.9,1.2 1.3,0.2 h 1.5 l 2.4,-0.4 1.3,-0.6 0.9,-0.7 1.1,-1.5 1.1,-1.9 0.8,-1.1 0.8,-0.4 h 1 l 1.2,0.2 1.4,0.2 2.2,-0.4 1.2,-0.6 0.8,-0.8 0.5,-0.9 0.7,-2.4 1,-1.5 1,-0.6 1.1,-0.1 2.2,0.4 8.8,-0.6 3.3,-1.1 7.8,-4.4 2.3,-0.9 1.6,-0.2 0.7,0.6 1.3,1.2 0.8,0.6 0.8,0.4 1.1,0.3 5.9,0.8 3.2,1.1 4.4,0.5 0.9,0.4 1.5,1.1 0.9,0.5 1,0.3 1.1,0.2 h 1.2 l 3.3,-0.2 h 1.1 l 0.9,0.3 0.9,0.4 8.5,5.8 0.7,0.6 1,0.5 1.3,0.3 2.2,-0.1 0.9,-0.7 0.4,-1 -0.3,-1 -0.4,-0.9 -0.9,-1.6 -0.3,-0.8 -0.2,-1 0.1,-0.9 0.4,-0.8 0.6,-0.7 3.4,-3.1 1,-1.2 0.8,-0.6 4.4,-2.6 1.8,-0.4 1.4,-0.1 1,0.4 1.6,1 10,8.1 1.6,1 0.9,0.4 1.2,0.3 1.6,0.2 26.2,-2.1 5.6,1 3.8,0.2 16.9,-2.1 0.8,0.2 0.7,0.4 0.7,0.6 0.6,0.6 1.1,1.5 1.1,0.5 1.5,0.3 3,-0.2 1.7,0.1 1.2,0.4 2.1,1.8 1,0.5 1.3,0.4 2,0.3 1.4,-0.1 1.2,-0.4 2.6,-1.6 1.6,-0.3 1.3,-0.1 3.9,0.4 18.9,4 z"
     id="UYTT"
     name="Treinta y Tres"
     style="fill:#ff0000;stroke:#000000;stroke-opacity:1;stroke-width:7.3;stroke-miterlimit:4;stroke-dasharray:none" />
  <path
     d="m 705.4,332.3 0.6,1.4 4.3,4.2 5.1,3.7 4.8,4.5 4.8,5.6 10.8,10 8.7,6.2 7.7,7.2 3.7,2.6 1.7,-0.1 1.5,-2 2.9,-2.7 2.9,-1 3.1,0.3 3,1.3 2.7,2.1 0.9,1.2 1.4,2.7 1.5,1.3 1.5,0.6 5.2,0.5 2.7,0.8 2.2,1.1 4.5,3.1 1.9,2 0.6,1.9 0.4,1.9 1,1.9 1.6,1.9 2,1.8 4.4,2.9 9.2,1.9 2.3,1.5 0.9,2.6 0.2,6.5 4.5,10.8 8,11.9 1.9,5.2 1,6.3 0.5,9.4 0.8,3.1 1.4,2.4 4,3.6 1.6,2.3 2.7,4.8 3.2,4.4 3.8,3.8 9.9,7.1 9.2,10.4 8.9,3 6.8,4.2 2.6,0.9 h 5.1 l 5.2,3.2 5.1,2.4 2.4,1.7 10.4,11.4 1.4,2.8 -0.5,3.3 -2,2.7 -5.7,4.5 -3.1,3.9 h -0.1 l -18.9,-4 -3.9,-0.4 -1.3,0.1 -1.6,0.3 -2.6,1.6 -1.2,0.4 -1.4,0.1 -2,-0.3 -1.3,-0.4 -1,-0.5 -2.1,-1.8 -1.2,-0.4 -1.7,-0.1 -3,0.2 -1.5,-0.3 -1.1,-0.5 -1.1,-1.5 -0.6,-0.6 -0.7,-0.6 -0.7,-0.4 -0.8,-0.2 -16.9,2.1 -3.8,-0.2 -5.6,-1 -26.2,2.1 -1.6,-0.2 -1.2,-0.3 -0.9,-0.4 -1.6,-1 -10,-8.1 -1.6,-1 -1,-0.4 -1.4,0.1 -1.8,0.4 -4.4,2.6 -0.8,0.6 -1,1.2 -3.4,3.1 -0.6,0.7 -0.4,0.8 -0.1,0.9 0.2,1 0.3,0.8 0.9,1.6 0.4,0.9 0.3,1 -0.4,1 -0.9,0.7 -2.2,0.1 -1.3,-0.3 -1,-0.5 -0.7,-0.6 -8.5,-5.8 -0.9,-0.4 -0.9,-0.3 h -1.1 l -3.3,0.2 h -1.2 l -1.1,-0.2 -1,-0.3 -0.9,-0.5 -1.5,-1.1 -0.9,-0.4 -4.4,-0.5 -3.2,-1.1 -5.9,-0.8 -1.1,-0.3 -0.8,-0.4 -0.8,-0.6 -1.3,-1.2 -0.7,-0.6 -1.6,0.2 -2.3,0.9 -7.8,4.4 -3.3,1.1 -8.8,0.6 -2.2,-0.4 -1.1,0.1 -1,0.6 -1,1.5 -0.7,2.4 -0.5,0.9 -0.8,0.8 -1.2,0.6 -2.2,0.4 -1.4,-0.2 -1.2,-0.2 h -1 l -0.8,0.4 -0.8,1.1 -1.1,1.9 -1.1,1.5 -0.9,0.7 -1.3,0.6 -2.4,0.4 h -1.5 l -1.3,-0.2 -2.9,-1.2 -2.1,-0.5 h -2.1 l -1.4,0.2 -7.3,3 -2.5,0.6 -5.1,-0.1 -4.4,0.5 -2,0.5 -9.3,4.7 -2.6,2.4 -2.5,2.7 -1.3,1.2 -0.8,0.4 -5.4,2.2 -1.9,1.4 -1.2,1.2 -1,0.8 -3.5,2 -0.8,0.7 -1,1.2 -0.8,1.3 -0.5,1.1 -0.1,1.4 0.3,1.6 2.3,4 0.2,1.2 v 3.4 l -8.1,-1.1 -11.3,0.4 -2.5,-0.2 -1.6,-0.4 -0.6,-0.7 -1.8,-2.6 v -0.1 l -0.5,-0.4 -14.9,-9.7 -2.1,-1.8 -2.9,-3.4 -1.8,-3 -0.7,-2.1 -0.4,-2 v -1.1 l 0.9,-4.5 0.3,-3.5 -0.1,-1.1 -0.3,-0.9 -0.6,-1.3 -2.6,-4 -0.7,-1.5 -0.3,-1.4 0.2,-1 0.5,-0.8 0.7,-0.6 0.8,-0.4 2.1,-0.4 0.8,-0.4 0.6,-0.7 0.3,-1 v -1.1 l -0.2,-1.1 -4.1,-9.5 -0.2,-1.1 v -2.2 l 0.5,-2.1 2.2,-5.8 2.2,-9.8 0.2,-2.4 -0.1,-2.2 -0.7,-4.1 -3.2,-6.1 13.9,-6.5 5.4,-0.3 10.3,4.1 5.3,1.1 5.5,-0.8 4.9,-2.3 4.1,-3.2 3.3,-3.8 3.2,-5.4 2.4,-2.4 5.6,-1.7 1.3,-1.7 1.1,-2.1 1.4,-1.9 1.6,-1.1 3.3,-1.6 1.6,-1.1 2.5,-3.4 3.4,-7.6 2.2,-3.8 0.6,-2 -0.6,-2.1 -1.1,-2 -0.5,-2.1 0.2,-1.7 0.6,-1.9 1.3,-2.7 3.7,-4.1 1.2,-2.5 0.5,-4.3 1.7,-1.9 3.9,1.3 6.3,3.8 2.3,-0.3 3.4,-0.9 3.3,-0.9 3.3,-0.4 3.6,-1.2 2.3,-2.7 0.5,-3.3 -1.5,-3 1.5,-2.2 4,-3.1 1,-2.4 -0.6,-3.1 -1.9,-0.8 -2.6,-0.4 -2.5,-2 5.3,-7.7 2,-5.4 2.2,-4 3.7,-9.3 0.8,-3.3 -0.7,-4.5 -2.8,-8.2 0.2,-4.4 0.8,-1.8 1.4,-2.1 1.6,-1.7 1.1,-0.7 0.5,-0.8 2.1,-4.4 0.8,-1 z"
     id="UYCL"
     name="Cerro Largo"
     style="fill:#ff0000;stroke:#000000;stroke-opacity:1;stroke-width:7.3;stroke-miterlimit:4;stroke-dasharray:none" />
  <path
     d="m 703.1,755 3.3,32.1 -0.1,0.9 -0.4,2 -0.3,1.1 -1.8,3.6 -0.4,1 -0.3,1.1 -1.6,10.4 0.4,11.7 0.6,3.2 0.4,4.4 -0.6,11.4 -0.8,5.4 -0.4,0.6 -0.4,0.3 -0.7,0.2 -0.9,-0.2 -0.9,-0.3 h -1 l -1.1,0.5 -1.2,2.4 -0.4,2.3 -0.2,3.7 0.2,1.9 0.3,1.3 1.1,1.6 0.5,1.2 0.3,1.7 0.4,5 0.2,1.4 0.5,0.8 1.4,1.7 0.6,1.2 0.7,2.3 0.1,1.6 -0.2,1.3 -0.2,1.1 -0.8,2 -2.4,4.2 -0.5,1.3 -1.4,5.1 -0.4,4.2 0.4,7.6 0.3,2.2 2.1,7.1 0.1,1 -0.1,0.9 -0.4,0.8 -1.2,1.6 -0.7,1.1 -0.6,1.9 -0.1,1.5 0.2,1.1 0.7,2 0.1,0.2 -1.8,0.9 -9.8,2.8 -5,4.3 -3.3,1.5 -6.6,2 -27.3,13.2 -3.3,0.6 -3.1,1.1 -4,4.8 -3,0.6 0.7,-1.9 0.3,-1.2 v -0.8 l -1.6,-2.5 -2.1,-2.2 -2.8,-1.4 -6.2,-0.8 -0.4,-0.8 0.1,-1.2 -1,-1.7 -1.6,-1.2 -1.4,-0.7 -3.5,-0.7 -7.4,0.4 -14.5,3.4 -6,-1.2 -4.1,-4.1 -8.2,-11 -5.6,-3 -0.1,-1.5 -0.3,-1.4 -1.3,-2.6 -3.1,-4.6 -1.2,-1.2 -0.5,-0.9 -0.5,-1 -0.1,-1.6 0.1,-1.3 0.8,-4.7 -0.3,-1.3 -0.8,-1.4 -2,-1.8 -2.3,-1.8 -1.6,-2.1 -2.4,-5.4 21.2,-1.2 4.1,-1 3.7,-1.8 1.2,-0.7 17.8,-15.2 1.9,-0.6 1.1,-0.2 2.3,-0.1 4.9,0.4 2.1,-0.3 1,-0.3 1.9,-1.5 8.7,-8.2 2.9,-2.2 2.1,-1.2 3.4,-0.4 1.9,-0.6 4.9,-2.6 2.8,-0.4 1.4,-0.5 1.4,-1 2.4,-2 2.8,-1.4 0.9,-0.6 0.7,-1 0.5,-1.9 0.3,-4.1 0.5,-2.3 2.7,-9.5 0.5,-1.1 0.9,-1 1.4,-1.1 1.1,-0.9 0.7,-1.2 0.6,-1.9 0.5,-3.9 0.3,-1 0.1,-1.1 v -1 l -0.1,-0.8 -0.1,-0.6 -0.4,-1.4 -0.1,-0.6 0.5,-1.5 3.4,-5.8 2.3,-5.3 4.5,-6.9 0.7,-1.5 0.4,-1 0.9,-1.2 1.5,-1.4 3.3,-2.2 1.9,-0.9 1.6,-0.6 7.7,-1 3.6,-1.4 1.2,-1.2 1.2,-1.9 2,-4.3 1.3,-4.3 0.2,-1.2 0.3,-1.1 1.7,-2.6 z"
     id="UYMA"
     name="Maldonado"
     style="fill:#ff0000;stroke:#000000;stroke-opacity:1;stroke-width:7.3;stroke-miterlimit:4;stroke-dasharray:none" />
  <path
     d="m 547.4,887.3 2.4,5.4 1.6,2.1 2.3,1.8 2,1.8 0.8,1.4 0.3,1.3 -0.8,4.7 -0.1,1.3 0.1,1.6 0.5,1 0.5,0.9 1.2,1.2 3.1,4.6 1.3,2.6 0.3,1.4 0.1,1.5 -0.5,-0.3 -3.9,-0.3 -10.4,-0.8 -6.5,0.7 -8.1,-2.2 -6.4,-2.9 -7,1.6 -7.4,-3.1 -9.9,3.4 -5.6,-1.6 -10.4,3.6 -4.8,2 -10.3,6.9 -7.8,5.7 -5.4,3.2 -1.1,-1.8 -0.6,-1.9 -0.5,-3.6 v -3.6 l 0.1,-1.3 0.2,-1 1.7,-3.9 0.6,-2.1 v -1.2 l -0.4,-0.9 -1,-0.5 -2.1,0.1 -1.3,0.3 -1.3,0.1 -1.2,-0.2 -1.3,-1.1 -0.6,-0.9 -0.5,-0.8 -0.3,-0.4 -0.7,-0.5 -0.9,-0.3 -0.9,-0.5 -0.7,-0.6 -0.9,-1.8 -0.3,-0.9 -0.7,-1.3 -0.9,-0.2 -1.4,-0.1 -3.2,1.1 -1.5,0.8 -1,1 -1.1,1.6 -0.6,0.8 -0.7,0.6 -0.7,0.6 -0.8,0.5 -1.7,0.6 -0.8,-0.1 -1.3,-0.4 -2.3,-1.2 -1,-0.7 -0.7,-0.7 -1.8,-3.2 -0.5,-0.7 -1.3,-1.4 -0.9,-0.6 -1.1,-0.4 -1.7,-0.3 h -1.4 l -2.8,0.8 -5.2,3.1 -1.2,-1.9 -2.4,-2.8 -5.6,-5 -5.1,-3 -0.7,-0.6 -0.5,-1 -0.4,-1.3 -0.2,-5.3 -0.9,-5.3 0.2,-1.3 0.5,-1.3 1.2,-1.4 1,-0.8 1.9,-0.9 0.7,-0.5 0.7,-0.6 0.6,-0.8 1,-1.6 1.2,-1.5 2.7,-2.6 0.3,-1.2 v -1.5 l -0.7,-2.6 -0.6,-1.3 -0.6,-0.9 -0.1,-0.9 v -1.3 l 1.1,-4.6 v -3.6 l 2.8,-9.7 1.6,-2.9 1.6,-1 2,-0.8 2.6,-0.7 4.7,-0.3 2.3,0.1 1.6,0.2 1.8,0.6 6.9,3.9 1.8,0.2 2.7,-0.1 7.8,-1.8 1.6,-0.7 1.2,-1.5 1.4,-2.7 2,-6.1 0.4,-1 1,-1.1 1.5,-1.2 14,-9.3 1.5,-0.1 2.1,0.1 3.2,1 8.3,4.1 1.3,0.2 1.9,0.1 3.5,-0.5 1.8,-0.5 1.3,-0.5 10.7,-6.6 4.3,-1.5 19.7,-2.8 4.3,17.3 2.1,6.2 6.5,12.2 0.6,1.8 0.2,1.6 -0.1,1.2 -1.9,9.5 -0.1,1.7 0.2,4.1 0.3,0.8 0.9,1.5 6.5,8 2.5,4.9 0.9,2.8 z"
     id="UYCA"
     name="Canelones"
     style="fill:#ff0000;stroke:#000000;stroke-opacity:1;stroke-width:7.3;stroke-miterlimit:4;stroke-dasharray:none" />
  <path
     d="m 407.5,908.7 5.2,-3.1 2.8,-0.8 h 1.4 l 1.7,0.3 1.1,0.4 0.9,0.6 1.3,1.4 0.5,0.7 1.8,3.2 0.7,0.7 1,0.7 2.3,1.2 1.3,0.4 0.8,0.1 1.7,-0.6 0.8,-0.5 0.7,-0.6 0.7,-0.6 0.6,-0.8 1.1,-1.6 1,-1 1.5,-0.8 3.2,-1.1 1.4,0.1 0.9,0.2 0.7,1.3 0.3,0.9 0.9,1.8 0.7,0.6 0.9,0.5 0.9,0.3 0.7,0.5 0.3,0.4 0.5,0.8 0.6,0.9 1.3,1.1 1.2,0.2 1.3,-0.1 1.3,-0.3 2.1,-0.1 1,0.5 0.4,0.9 v 1.2 l -0.6,2.1 -1.7,3.9 -0.2,1 -0.1,1.3 v 3.6 l 0.5,3.6 0.6,1.9 1.1,1.8 -4.9,2.9 -5.6,-0.5 -4.7,2.7 -2.3,1.5 -0.9,4 -3.4,-4.8 -2.7,-0.5 -2.9,-1.1 1.3,-1.8 0.2,-2.1 -1.7,-1.5 -2.5,-0.4 -1,2.9 -3.1,2.6 h -1.5 l -3.5,-0.6 -3.6,0.6 -5,-4.3 -9.4,-5.6 -2.5,-2.2 -0.3,-2.9 2.7,-2.3 2.6,-2.7 4,-1 -0.5,-0.6 0.9,-0.9 0.4,-0.7 0.3,-1.6 v -1.4 z"
     id="UYMO"
     name="Montevideo"
     style="fill:#ff0000;stroke:#000000;stroke-opacity:1;stroke-width:7.3;stroke-miterlimit:4;stroke-dasharray:none" />
  <path
     d="m 401.6,851.3 v 3.6 l -1.1,4.6 v 1.3 l 0.1,0.9 0.6,0.9 0.6,1.3 0.7,2.6 v 1.5 l -0.3,1.2 -2.7,2.6 -1.2,1.5 -1,1.6 -0.6,0.8 -0.7,0.6 -0.7,0.5 -1.9,0.9 -1,0.8 -1.2,1.4 -0.5,1.3 -0.2,1.3 0.9,5.3 0.2,5.3 0.4,1.3 0.5,1 0.7,0.6 5.1,3 5.6,5 2.4,2.8 1.2,1.9 1.5,6.8 v 1.4 l -0.3,1.6 -0.4,0.7 -0.9,0.9 -1.8,-2.1 -3.1,-1.3 -8.3,-3.3 -5.7,-0.9 -5.6,0.2 -3.3,2.3 -2.6,-0.3 -2.4,-1.2 -5.9,-3.7 -2.8,-1.3 -2.8,-2 -10.5,-2.9 -12.9,-1.7 -12.3,-5.4 -2.6,-1.9 -2.2,-4.7 -2.4,-2.3 -5.2,-3.8 -3.7,-4.3 -3.3,-3.2 -2.9,-2.3 -4.2,-2.7 -2.3,-2.1 0.2,-2.6 -1,-1.3 -2.3,-1.6 -1,-0.9 -2.9,-3.3 -2.9,-2.5 -5,-2.3 -2.4,-0.5 9.6,-8.4 0.7,-0.7 0.4,-1.3 0.2,-1.8 -0.1,-3.7 0.1,-2.1 0.9,-2 1,-1.2 0.7,-1.5 1.2,-3.9 0.1,-1.3 -0.6,-1.1 -3.2,-3.7 -0.4,-0.8 -0.5,-0.9 -0.1,-1.2 V 817 l 0.7,-2.5 0.6,-1.4 0.7,-1 3.8,-2.7 2.5,-1.3 6.7,-2 1.1,-0.6 0.7,-0.4 7,-5.7 1.1,-1.4 0.3,-0.4 0.2,-0.6 v -0.5 l -0.1,-1.3 -0.8,-2 -5.9,-9.2 -5.1,-6.1 -1.1,-0.9 -2.7,-1.4 -0.7,-0.5 -0.8,-1.1 -0.7,-1.7 -1.3,-5.6 -2.1,-4.7 6.7,0.4 22.7,4.4 1.8,-0.1 2.2,-0.6 3.8,-1.5 1.9,-0.9 1.3,-0.9 6.5,-8 2.6,-2.2 0.4,-0.3 0.7,-0.4 10.8,-2.7 3.6,-1.4 3.2,-1.9 6.4,-5.3 4.8,1.2 17.2,8.8 2.1,6.1 4.8,22.8 0.7,7.9 -0.1,2.1 -0.3,1.6 -0.4,0.9 -3.4,6.1 -0.4,1.1 -0.4,1.4 v 1.2 l 0.3,1 2.8,7.3 0.8,2.8 0.2,1.8 -0.7,12.6 -0.3,1.8 -0.5,0.9 -0.6,0.8 -0.7,0.6 -3,1.6 -0.8,0.6 -0.8,1 -0.6,1.6 v 1.2 l 0.3,0.9 8.7,9.4 0.8,1.1 z"
     id="UYSJ"
     name="San José"
     style="fill:#ff0000;stroke:#000000;stroke-opacity:1;stroke-width:7.3;stroke-miterlimit:4;stroke-dasharray:none" />
  <path
     d="m 295.4,762 2.1,4.7 1.3,5.6 0.7,1.7 0.8,1.1 0.7,0.5 2.7,1.4 1.1,0.9 5.1,6.1 5.9,9.2 0.8,2 0.1,1.3 v 0.5 l -0.2,0.6 -0.3,0.4 -1.1,1.4 -7,5.7 -0.7,0.4 -1.1,0.6 -6.7,2 -2.5,1.3 -3.8,2.7 -0.7,1 -0.6,1.4 -0.7,2.5 v 1.6 l 0.1,1.2 0.5,0.9 0.4,0.8 3.2,3.7 0.6,1.1 -0.1,1.3 -1.2,3.9 -0.7,1.5 -1,1.2 -0.9,2 -0.1,2.1 0.1,3.7 -0.2,1.8 -0.4,1.3 -0.7,0.7 -9.6,8.4 -5.6,-1.2 -14,-0.3 -8.6,0.6 -2.9,-2.5 -7.2,0.2 -4,2.5 -2,-2.5 -4,-0.4 -4.4,2.1 -5.5,2.5 -5,-5.1 -4,-0.2 -4.6,0.9 -6.3,2.9 -8.7,3.4 -2.9,-0.4 -4,2.5 -4.6,-0.4 -4.6,0.5 -5.2,-0.8 1.6,-1.5 -1.4,-2.9 -4.4,-1.3 -2.8,-4.6 0.4,-7.7 -4,-4.3 -3.1,-5.2 -11.6,-13.9 -5.2,-2.5 -1.8,-2.9 -2.5,-6.2 -2.7,-2.7 -3.9,-1.7 -4.2,-0.7 -3.6,-0.3 -4.3,-0.8 -2,-2.3 -1.8,-7.1 -1.8,-4 -13.3,-19.4 -2.9,-2.5 -5.9,-3.6 -2.6,-2.3 -2.1,-3.7 -1.2,-3.9 -0.9,-5 h 0.1 l 5,-0.9 2.2,-0.7 14.2,-5.9 14.7,-10.2 2.5,-0.8 2.7,0.4 17.7,4.5 0.8,0.9 1,1.3 0.5,0.8 0.7,1.8 0.6,1.9 0.4,0.9 0.9,1.6 0.5,0.6 0.6,0.5 0.4,0.4 0.7,0.3 1.3,0.4 1.6,0.2 2.8,-0.1 4.7,-0.9 12.2,0.4 1.6,0.4 2.2,1.1 1.1,0.9 0.8,0.8 0.4,0.6 0.2,0.3 -0.2,-0.2 1,1.3 0.8,0.7 1.5,1.1 21.4,7.4 4.5,0.4 9.5,-0.9 27,-7.4 2.9,0.8 3.4,1.6 3,1.7 2.7,2.6 2.9,2.3 0.9,0.5 4.4,0.6 h 13 z"
     id="UYCO"
     name="Colonia"
     style="fill:#ff0000;stroke:#000000;stroke-opacity:1;stroke-width:7.3;stroke-miterlimit:4;stroke-dasharray:none" />
  <path
     d="M 295.4,762 279,759.5 h -13 l -4.4,-0.6 -0.9,-0.5 -2.9,-2.3 -2.7,-2.6 -3,-1.7 -3.4,-1.6 -2.9,-0.8 -27,7.4 -9.5,0.9 -4.5,-0.4 -21.4,-7.4 -1.5,-1.1 -0.8,-0.7 -1,-1.3 0.2,0.2 -0.2,-0.3 -0.4,-0.6 -0.8,-0.8 -1.1,-0.9 -2.2,-1.1 -1.6,-0.4 -12.2,-0.4 -4.7,0.9 -2.8,0.1 -1.6,-0.2 -1.3,-0.4 -0.7,-0.3 -0.4,-0.4 -0.6,-0.5 -0.5,-0.6 -0.9,-1.6 -0.4,-0.9 -0.6,-1.9 -0.7,-1.8 -0.5,-0.8 -1,-1.3 -0.8,-0.9 -17.7,-4.5 -2.7,-0.4 -2.5,0.8 -14.7,10.2 -14.2,5.9 -2.2,0.7 -5,0.9 h -0.1 l -3,-17.2 -0.7,-16.3 2.1,-16.1 -0.5,-4 -0.9,-3.7 -0.5,-3.9 0.8,-4.5 2.1,-3.7 5.4,-7.1 1,-4.1 -0.9,-3.7 -1.1,-0.8 v -0.1 l 15,-8.9 8.5,-11.1 2.9,-1.8 h 7.5 l 4.5,0.7 1.8,-0.8 0.7,-3.2 v -7.1 l 0.5,-1.9 1.7,-1.7 5.3,-2.8 1.8,1.1 2.7,2.6 0.8,0.1 1.7,1.4 1.2,-1.6 0.7,-3.1 -0.2,-3.1 -0.5,-0.3 -2,-1.9 -0.9,-1.1 v -1.4 l 0.1,-1.7 -0.1,-1.3 -1.7,-3.7 0.1,-1.3 1.6,-1.4 2.6,-0.7 2.2,0.6 2.3,0.8 2.7,0.4 3.5,-0.9 0.7,-1.6 -0.4,-2.2 0.6,-2.9 1.5,-1.5 4.7,-1.2 2.4,-1 2.2,-2.1 1.6,-2.1 1.9,-1.6 2.8,-0.9 2.8,0.5 4.4,2.6 2.4,0.9 1.9,-0.1 3.3,-0.9 1.9,-0.3 1.7,0.4 2.3,1.8 4.7,1.1 6,2.5 3.1,-0.7 1.1,-1.4 1.6,-4.1 1.1,-0.9 5.2,-1.4 1.2,-0.5 3,-2.2 3.4,-0.7 3.5,0.5 6.9,3.7 1.4,1.1 0.6,1.5 v 2.1 l 0.2,2.3 0.8,1.8 1.7,0.8 1.9,-0.5 3.2,-2.4 1.9,-0.8 1.7,-0.2 1.6,0.3 6.4,2.2 2.8,1.5 1.9,2.2 1.7,7.4 2.4,-0.7 2.6,-2.7 1.6,-2.5 0.9,5 0.9,2 1.8,0.8 1.8,-0.3 7,-3.1 3.9,-2.4 1.4,-0.6 -2.1,5.9 -1,1.8 -11.3,14.3 -2,1.8 -16.5,19.8 -1.7,3 -0.1,1.7 0.2,1.2 0.4,1 0.4,0.8 0.6,0.7 4.1,2.7 0.7,0.6 0.6,0.7 0.5,0.8 0.3,0.9 1.8,8 0.3,1 0.4,0.8 2.6,3.3 v 0.1 h 0.1 l 0.1,0.5 0.4,2.5 0.1,2.2 0.2,1.4 0.3,1.2 0.5,0.8 0.6,0.7 0.7,0.6 3.2,4.5 1.4,1.2 1.5,1.1 1,0.4 4.3,1.1 0.9,0.6 0.8,0.7 0.5,1.2 v 1.2 l -0.3,1 -0.3,0.9 -0.4,0.8 -0.4,1 -0.3,1.1 -2.3,18.5 -0.1,2.4 0.2,0.6 0.2,0.7 6.6,11.3 1.9,4.5 0.2,1 0.5,2.8 0.6,2.2 0.4,1.1 0.4,1.3 0.7,4.8 0.6,1.9 0.3,0.9 0.5,0.8 2.7,3.8 z"
     id="UYSO"
     name="Soriano"
     style="fill:#ff0000;stroke:#000000;stroke-opacity:1;stroke-width:7.3;stroke-miterlimit:4;stroke-dasharray:none" />
  <path
     d="m 120.4,485.8 h 0.1 l 4.6,-0.9 8,-0.5 1.3,0.3 1.8,0.7 1,0.7 0.7,0.6 0.5,0.6 4.3,5.1 0.7,0.6 0.7,0.5 3.5,1.9 0.6,0.6 0.6,0.8 0.8,1.6 1,3.2 0.2,0.4 0.4,0.6 1.2,0.5 1.9,0.5 3.8,0.4 3.2,0.9 1.6,1.1 1.9,0.4 13.8,1.4 0.8,0.5 1.2,0.3 1.4,-0.2 2.3,-1.1 1.2,-1 0.7,-1 0.6,-3.8 0.2,-1.1 0.4,-0.9 0.5,-0.8 0.7,-0.6 27.3,-4.1 1.6,-1.1 0.6,-0.6 1.1,-1.5 0.5,-0.9 1,-2.7 0.1,-0.1 0.1,-0.4 0.8,-1.5 0.6,-0.7 0.7,-0.5 0.9,-0.4 3.7,-1.2 0.7,-0.4 1.5,-1.4 0.5,-0.7 1.2,-1.3 1.4,-1.1 0.8,-0.4 1.6,-0.2 2.1,0.1 5.6,1 1.5,0.1 4.1,-0.7 2.7,-1 2.4,-1.4 1.1,-0.2 1.4,0.1 3.4,1.6 1.4,0.4 1.6,0.2 2.8,-0.5 1.6,-0.4 1.1,-0.5 10.3,-7.5 1.7,-0.8 1.5,-0.4 9.9,-0.1 2.1,-0.4 0.8,-0.3 1.6,-0.9 3,-2.3 1.6,-0.8 0.8,-0.3 1.7,0.1 2.3,0.6 8.6,4 5,3 3.8,1 3.5,0.2 3.4,-0.2 3.9,-1 1.7,0.2 6.1,1.1 2.1,0.2 1.5,-0.1 1.9,-0.5 1.1,-0.1 2.8,0.4 8.6,2.7 1.6,1 8.7,7.3 2.1,1.4 5,2.7 -0.7,8.5 -5,20.8 -0.6,2.7 -3.1,3.7 -1.6,2.8 -0.6,3.5 v 2.3 l 0.4,3.7 -1.6,6.3 -2.7,5.6 -1.4,5.5 -3,-0.9 -2.8,0.9 -1.8,2.3 -3.1,1.4 -4.6,0.2 -2.8,1.2 -2.1,2 -1.4,1.5 -1.8,4.1 0.1,1.2 v 3 l -2,0.7 -2.9,-0.6 -2.7,0.8 -0.9,1.7 0.1,1.9 0.8,3.5 -0.7,2.1 -1.5,-0.5 -2.6,-2.3 -0.9,-0.5 -1,-1.1 -1.4,-0.9 -1.6,-0.1 -1.8,1.3 v 1.6 l 0.6,1.5 0.1,0.8 -2.2,0.5 -3.4,0.2 -2.7,0.7 0.3,1.8 2.3,2.8 -0.1,1.3 -1.9,0.4 h -3.6 l -3,-0.6 -6.5,-2.7 -2.9,-0.6 -2.7,0.7 -2.8,1.8 -2.6,2.2 -2.1,2.2 -1.2,0.8 -2.8,0.4 -0.8,0.8 v 2.1 l 1.1,1.1 1.6,0.1 1.5,-0.7 3.4,1.4 -0.3,2.2 0.8,5.6 v 1.1 l -1.4,0.6 -3.9,2.4 -7,3.1 -1.8,0.3 -1.8,-0.8 -0.9,-2 -0.9,-5 -1.6,2.5 -2.6,2.7 -2.4,0.7 -1.7,-7.4 -1.9,-2.2 -2.8,-1.5 -6.4,-2.2 -1.6,-0.3 -1.7,0.2 -1.9,0.8 -3.2,2.4 -1.9,0.5 -1.7,-0.8 -0.8,-1.8 -0.2,-2.3 v -2.1 l -0.6,-1.5 -1.4,-1.1 -6.9,-3.7 -3.5,-0.5 -3.4,0.7 -3,2.2 -1.2,0.5 -5.2,1.4 -1.1,0.9 -1.6,4.1 -1.1,1.4 -3.1,0.7 -6,-2.5 -4.7,-1.1 -2.3,-1.8 -1.7,-0.4 -1.9,0.3 -3.3,0.9 -1.9,0.1 -2.4,-0.9 -4.4,-2.6 -2.8,-0.5 -2.8,0.9 -1.9,1.6 -1.6,2.1 -2.2,2.1 -2.4,1 -4.7,1.2 -1.5,1.5 -0.6,2.9 0.4,2.2 -0.7,1.6 -3.5,0.9 -2.7,-0.4 -2.3,-0.8 -2.2,-0.6 -2.6,0.7 -1.6,1.4 -0.1,1.3 1.7,3.7 0.1,1.3 -0.1,1.7 v 1.4 l 0.9,1.1 2,1.9 0.5,0.3 0.2,3.1 -0.7,3.1 -1.2,1.6 -1.7,-1.4 -0.8,-0.1 -2.7,-2.6 -1.8,-1.1 -5.3,2.8 -1.7,1.7 -0.5,1.9 v 7.1 l -0.7,3.2 -1.8,0.8 -4.5,-0.7 h -7.5 l -2.9,1.8 -8.5,11.1 -15,8.9 v 0.1 l -3.3,-2.8 -1,-3.7 1,-3.5 2.4,-3 5.7,-5.6 1.6,-3.8 0.3,-4.3 -2.7,-16.3 -0.1,-7.9 2.4,-6 6.5,-2.4 14.6,0.8 6.7,-0.5 5.8,-2.9 5.9,-5.5 2.6,-3.4 1,-3.2 0.3,-4.3 0.7,-3.4 2.3,-7.1 1.2,-7.5 -1.4,-5.6 -3.1,-4.4 -6.8,-7.2 -1.6,-3.2 -0.9,-3.4 -0.2,-3.9 0.3,-8.4 -0.3,-4.3 -1.2,-3.2 1.2,-1.4 -1.4,-4.8 -1.7,-13 -1.8,-2.7 -1.3,-2.9 z"
     id="UYRN"
     name="Río Negro"
     style="fill:#ff0000;stroke:#000000;stroke-opacity:1;stroke-width:7.3;stroke-miterlimit:4;stroke-dasharray:none" />
  <path
     d="m 376.8,485.9 8.4,-25.3 2.6,-4.1 4.7,-4.3 5.8,-4.3 5.3,-4.9 4.7,-5.6 1.2,-3.2 4.5,-20.7 0.7,-2.2 1.8,-3.2 0.8,-1.9 1.1,-3.9 0.7,-7.8 v -0.1 l 0.1,-1.2 -0.1,-7.9 0.4,-1.9 0.5,-1.3 0.7,-0.6 0.8,-0.4 1.6,-0.6 1.4,-0.3 0.7,-0.2 0.5,-0.5 0.4,-1 0.1,-1.3 -0.3,-1.2 -0.6,-1.1 -3.8,-4.7 -0.4,-1.1 -0.4,-1.5 -0.2,-4.3 0.3,-4 -0.1,-1.2 -0.6,-1.9 -0.8,-1.6 -5.1,-6.2 0.2,-5.1 -0.3,-2.5 -0.5,-1.9 -0.4,-2 -0.5,-7.9 -0.3,-2.1 -0.6,-1.8 -0.9,-1.6 -1.1,-1.4 -0.4,-0.8 -0.3,-0.9 0.4,-1.9 4.7,-12.9 0.7,-1.3 5.1,-4.9 0.8,-1.1 2.6,-5.6 0.8,-1.2 1.2,-0.7 2.9,-1.1 0.8,-0.4 1,-0.8 1,-1.1 1.5,-2.1 2,-2 0.7,-0.5 0.6,-1.3 0.4,-1.8 1.2,-7 1.4,-3.2 1,-3.4 3.7,-5.8 2,-1.8 2.6,-1.1 1.1,-0.2 h 3 l 2.3,0.6 0.8,0.4 12.9,10.3 7.5,4.3 11.4,4.8 2.6,2 0.8,0.9 0.6,0.8 1.7,3.3 0.6,1.8 0.3,1 0.1,2.3 -0.2,3.5 0.1,1 2.3,7.2 0.4,0.6 v 0.1 l 0.6,1.2 0.4,0.7 0.7,0.8 5.2,5 1.2,0.8 1.1,0.5 5.2,1.7 3,1.3 1.4,1 1,0.8 0.9,1.6 0.7,1.8 1.4,6 0.6,1.8 0.3,1 -0.1,1.1 -0.2,1.1 -1.3,3.9 -0.5,2.2 -0.2,2.4 0.1,1.2 0.2,1 0.4,0.8 0.9,1.6 0.4,0.8 0.1,1 -0.3,3.3 0.1,1.1 0.6,1.8 1.5,2.7 1.7,2.5 1.2,1.1 1.2,0.7 1.1,0.1 h 1.1 l 1,-0.2 2.6,-1.1 1,-0.2 1.1,0.1 4.4,1 4.3,0.5 13.8,-1 3.9,-0.9 2.3,-0.2 4.5,0.5 15.4,3.9 9.7,0.8 6.5,-0.8 4.8,0.2 2.5,0.5 6,2.8 3.1,1 12.1,1.1 1.9,0.4 6.8,2.6 3.6,1.8 0.6,0.6 0.6,0.6 3.2,4.5 0.6,0.6 4.3,3.5 2.3,2.6 2.7,4.9 6.6,7.5 2.5,3.7 5.8,5.8 2,3 1.9,4.3 1.1,1.7 2.3,2.6 -3.4,0.9 -2.3,0.3 -6.3,-3.8 -3.9,-1.3 -1.7,1.9 -0.5,4.3 -1.2,2.5 -3.7,4.1 -1.3,2.7 -0.6,1.9 -0.2,1.7 0.5,2.1 1.1,2 0.6,2.1 -0.6,2 -2.2,3.8 -3.4,7.6 -2.5,3.4 -1.6,1.1 -3.3,1.6 -1.6,1.1 -1.4,1.9 -1.1,2.1 -1.3,1.7 -5.6,1.7 -2.4,2.4 -3.2,5.4 -3.3,3.8 -4.1,3.2 -4.9,2.3 -5.5,0.8 -5.3,-1.1 -10.3,-4.1 -5.4,0.3 -13.9,6.5 -4.9,0.9 -1.3,-0.2 -0.6,-0.7 -0.7,-0.8 -5.5,-3.2 -1.1,-0.2 -1,0.1 -0.9,-0.1 -1.2,-1.1 -0.6,-1 -0.3,-1 -0.3,-3 -1.4,-1.3 -2.7,-0.7 -2.4,1.2 -1.5,2 -0.4,2.6 -0.8,2.7 -0.6,3.1 -2.1,2.5 -3.3,1 -3.5,0.4 -4,-0.5 -3.6,-0.9 -3.4,-1.5 -2.5,0.3 -2,2.6 -2,5.4 -2.6,1.2 -2.9,0.3 -2.6,-1.9 -3.3,-2.9 -3.1,-0.3 -1.8,1 -0.3,2.2 1.2,3.5 0.1,2.6 -1.5,1.7 -0.8,2.2 -0.8,3.1 -2.5,2.4 -3.4,2.4 -4.2,-1.4 -3.9,-4.4 -3.3,0.2 -3.8,2 -2.7,3.1 -2.2,3.5 -4.4,4.4 -4.3,5 -5.5,1 -5.5,0.3 -6.5,2.5 -6.9,1 -2.1,3.8 -2.9,4 -2.8,4.9 -0.9,5.4 -5.1,0.3 -6,-0.2 -5.3,-1.2 -5.1,-0.4 -4.3,3.5 -1.2,1.8 -1.6,3.4 -3.4,-0.3 -3.4,-3.5 -3.3,-1.9 -4,-0.3 -3.9,0.5 -2.8,-0.1 -3.1,0.1 -3.8,0.7 -2.6,1.2 -3,2.3 -2.9,0.7 -4.7,-2.8 1.4,-5.5 2.7,-5.6 1.6,-6.3 -0.4,-3.7 v -2.3 l 0.6,-3.5 1.6,-2.8 3.1,-3.7 0.6,-2.7 5,-20.8 z"
     id="UYTA"
     name="Tacuarembó"
     style="fill:#ff0000;stroke:#000000;stroke-opacity:1;stroke-width:7.3;stroke-miterlimit:4;stroke-dasharray:none" />
  <path
     d="m 620.2,585.3 -1.5,3 -0.5,0.7 -1.1,1.3 -1.4,1.2 -8.8,5.7 -1.3,1.7 -1.3,3.9 -8,4.4 -2.6,1.8 -8.7,8.3 -2.1,1.6 -1.7,0.8 -1.1,-0.1 -1,-0.3 -2.6,-1.4 -1.1,-0.3 -1.4,-0.1 -3.5,1.7 -3.5,2.3 -8.6,4.5 -1.3,1.4 -3.1,4 -30,17 -3.6,1.5 h -1.1 l -5.8,-1 -1.5,-0.1 -1.9,0.3 -1.1,0.5 -0.8,0.7 -0.5,0.8 -1,1.2 -1.5,1.3 -4.1,2.7 -9.7,4.4 -5.3,1.7 -1.1,0.1 -2.3,-0.1 -1.1,-0.2 -0.9,-0.4 -2.6,-1.4 -1,-0.3 -1.2,-0.1 h -1.1 l -8.2,1.6 -5.3,0.5 -1.5,0.6 -0.8,0.7 -0.4,1 -0.4,2.2 -0.5,1.1 -0.9,1.1 -3.3,2.4 -1.5,1.4 -1.2,0.5 -1.2,0.1 -7.6,-2.3 -4.4,-0.5 -8.9,0.7 -1.1,-0.2 -1,-0.4 -0.9,-0.5 -0.7,-0.5 -0.5,-0.8 -0.4,-0.8 -1.2,-3.8 -0.4,-0.9 -0.5,-0.8 -0.6,-0.7 -0.7,-0.5 -1.1,-0.3 h -1.2 l -7.3,0.9 -1.2,-0.2 -1,-0.2 -1.9,-0.9 -2.3,-1.6 -0.8,-0.6 -1.3,-1.4 -1,-0.5 -1.5,-0.4 -0.9,0.5 -0.4,0.9 -0.1,1.1 0.1,1.2 0.5,4.4 0.1,4.7 -0.4,1.3 -0.9,1.3 -2,1.6 -1.5,0.7 -1.2,0.3 -12.4,-0.3 -3,-3.5 -1.1,-2.2 -0.1,-1.1 -0.3,-4.5 -0.2,-1.1 -0.5,-1.7 -0.5,-1.1 -0.8,-1.3 -1.1,-1.2 -0.7,-1 -9.7,-10.7 -3.1,-5.8 -0.5,-0.7 -1.7,-1 -8.7,-3.4 -5.2,-1.3 -6.2,-0.3 -1.3,-0.5 -1.5,-0.7 -1.9,-1.8 -0.8,-1.3 -0.5,-1.2 -0.5,-3.2 -0.6,-1.9 -0.9,-1.6 -1.1,-1.5 -0.8,-0.5 -1.8,-0.8 -9,-2.1 -5.2,-0.7 -8.5,1.2 -1.8,-0.4 -6.4,-3.7 -7.4,-7.4 v -1.1 l -0.8,-5.6 0.3,-2.2 -3.4,-1.4 -1.5,0.7 -1.6,-0.1 -1.1,-1.1 v -2.1 l 0.8,-0.8 2.8,-0.4 1.2,-0.8 2.1,-2.2 2.6,-2.2 2.8,-1.8 2.7,-0.7 2.9,0.6 6.5,2.7 3,0.6 h 3.6 l 1.9,-0.4 0.1,-1.3 -2.3,-2.8 -0.3,-1.8 2.7,-0.7 3.4,-0.2 2.2,-0.5 -0.1,-0.8 -0.6,-1.5 v -1.6 l 1.8,-1.3 1.6,0.1 1.4,0.9 1,1.1 0.9,0.5 2.6,2.3 1.5,0.5 0.7,-2.1 -0.8,-3.5 -0.1,-1.9 0.9,-1.7 2.7,-0.8 2.9,0.6 2,-0.7 v -3 l -0.1,-1.2 1.8,-4.1 1.4,-1.5 2.1,-2 2.8,-1.2 4.6,-0.2 3.1,-1.4 1.8,-2.3 2.8,-0.9 3,0.9 4.7,2.8 2.9,-0.7 3,-2.3 2.6,-1.2 3.8,-0.7 3.1,-0.1 2.8,0.1 3.9,-0.5 4,0.3 3.3,1.9 3.4,3.5 3.4,0.3 1.6,-3.4 1.2,-1.8 4.3,-3.5 5.1,0.4 5.3,1.2 6,0.2 5.1,-0.3 0.9,-5.4 2.8,-4.9 2.9,-4 2.1,-3.8 6.9,-1 6.5,-2.5 5.5,-0.3 5.5,-1 4.3,-5 4.4,-4.4 2.2,-3.5 2.7,-3.1 3.8,-2 3.3,-0.2 3.9,4.4 4.2,1.4 3.4,-2.4 2.5,-2.4 0.8,-3.1 0.8,-2.2 1.5,-1.7 -0.1,-2.6 -1.2,-3.5 0.3,-2.2 1.8,-1 3.1,0.3 3.3,2.9 2.6,1.9 2.9,-0.3 2.6,-1.2 2,-5.4 2,-2.6 2.5,-0.3 3.4,1.5 3.6,0.9 4,0.5 3.5,-0.4 3.3,-1 2.1,-2.5 0.6,-3.1 0.8,-2.7 0.4,-2.6 1.5,-2 2.4,-1.2 2.7,0.7 1.4,1.3 0.3,3 0.3,1 0.6,1 1.2,1.1 0.9,0.1 1,-0.1 1.1,0.2 5.5,3.2 0.7,0.8 0.6,0.7 1.3,0.2 4.9,-0.9 3.2,6.1 0.7,4.1 0.1,2.2 -0.2,2.4 -2.2,9.8 -2.2,5.8 -0.5,2.1 v 2.2 l 0.2,1.1 4.1,9.5 0.2,1.1 v 1.1 l -0.3,1 -0.6,0.7 -0.8,0.4 -2.1,0.4 -0.8,0.4 -0.7,0.6 -0.5,0.8 -0.2,1 0.3,1.4 0.7,1.5 2.6,4 0.6,1.3 0.3,0.9 0.1,1.1 -0.3,3.5 -0.9,4.5 v 1.1 l 0.4,2 0.7,2.1 1.8,3 2.9,3.4 2.1,1.8 14.9,9.7 0.5,0.4 v 0.1 l 1.8,2.6 0.6,0.7 1.6,0.4 2.5,0.2 11.3,-0.4 z"
     id="UYDU"
     name="Durazno"
     style="fill:#ff0000;stroke:#000000;stroke-opacity:1;stroke-width:7.3;stroke-miterlimit:4;stroke-dasharray:none" />
  <path
     d="m 392,750.6 -17.2,-8.8 -4.8,-1.2 -6.4,5.3 -3.2,1.9 -3.6,1.4 -10.8,2.7 -0.7,0.4 -0.4,0.3 -2.6,2.2 -6.5,8 -1.3,0.9 -1.9,0.9 -3.8,1.5 -2.2,0.6 -1.8,0.1 -22.7,-4.4 -6.7,-0.4 -1.3,-2.1 -2.7,-3.8 -0.5,-0.8 -0.3,-0.9 -0.6,-1.9 -0.7,-4.8 -0.4,-1.3 -0.4,-1.1 -0.6,-2.2 -0.5,-2.8 -0.2,-1 -1.9,-4.5 -6.6,-11.3 -0.2,-0.7 -0.2,-0.6 0.1,-2.4 2.3,-18.5 0.3,-1.1 0.4,-1 0.4,-0.8 0.3,-0.9 0.3,-1 v -1.2 l -0.5,-1.2 -0.8,-0.7 -0.9,-0.6 -4.3,-1.1 -1,-0.4 -1.5,-1.1 -1.4,-1.2 -3.2,-4.5 -0.7,-0.6 -0.6,-0.7 -0.5,-0.8 -0.3,-1.2 -0.2,-1.4 -0.1,-2.2 -0.4,-2.5 -0.1,-0.5 h -0.1 v -0.1 l -2.6,-3.3 -0.4,-0.8 -0.3,-1 -1.8,-8 -0.3,-0.9 -0.5,-0.8 -0.6,-0.7 -0.7,-0.6 -4.1,-2.7 -0.6,-0.7 -0.4,-0.8 -0.4,-1 -0.2,-1.2 0.1,-1.7 1.7,-3 16.5,-19.8 2,-1.8 11.3,-14.3 1,-1.8 2.1,-5.9 7.4,7.4 6.4,3.7 1.8,0.4 8.5,-1.2 5.2,0.7 9,2.1 1.8,0.8 0.8,0.5 1.1,1.5 0.9,1.6 0.6,1.9 0.5,3.2 0.5,1.2 0.8,1.3 1.9,1.8 1.5,0.7 1.3,0.5 6.2,0.3 5.2,1.3 8.7,3.4 1.7,1 0.5,0.7 3.1,5.8 9.7,10.7 0.7,1 1.1,1.2 0.8,1.3 0.5,1.1 0.5,1.7 0.2,1.1 0.3,4.5 0.1,1.1 1.1,2.2 3,3.5 2.4,5 8.9,32.9 2.4,3.6 2.7,5.3 0.7,2 0.3,1.7 -0.9,17.6 -0.1,1.2 -0.3,1.1 -0.4,1 -0.4,0.9 -0.5,0.8 -0.6,0.8 -1.3,1.4 z"
     id="UYFS"
     name="Flores"
     style="fill:#ff0000;stroke:#000000;stroke-opacity:1;stroke-width:7.3;stroke-miterlimit:4;stroke-dasharray:none" />
  <path
     d="m 604.3,602.8 1.4,10.2 0.2,6.5 1.5,8.5 -0.2,1.8 -0.6,2.4 -1.7,4.5 -1.2,2 -1,1.2 -2.4,1.6 -0.6,0.7 -0.5,0.8 -0.5,1 -0.3,1.2 0.3,1.9 0.3,1.3 3.2,3.9 1,1.5 0.8,1.6 0.3,0.9 0.2,1.1 0.2,3.4 -0.2,2.5 -0.5,1.5 -0.8,1.6 -1.8,2.3 -1,1 -0.9,0.7 -5.4,1.9 -1.6,0.9 -1.3,0.9 -0.4,0.5 -0.1,0.1 -0.1,0.1 -0.4,0.4 -0.8,1.3 -1,2.3 -2.8,7.8 -0.8,1.2 -1.5,1.6 -1.1,0.9 -1,0.7 -1.7,0.7 -5,1.3 -1.8,0.7 -0.7,0.6 -0.8,1 -0.6,1.5 -0.5,3 -0.1,1.7 0.2,1.3 0.3,0.9 0.5,0.9 3.9,6.3 0.4,0.8 0.4,1 0.2,1 v 1.1 1.2 l -0.4,4.9 -0.6,2.4 -5.3,12.2 -0.6,1.9 -0.4,6.2 -0.5,1.4 -0.9,1.4 -2,1.8 -3.1,2 -1.4,1.3 -0.6,0.7 -1.3,2.3 -2,5.1 -1.7,2.4 -1.8,1.9 -1.1,1.5 -0.7,1.2 -0.6,2.4 v 0.1 1.4 1 l -0.2,1.2 -0.3,1 -0.7,1.1 -1,1.2 -7.6,6.7 -1.8,2 -0.8,1.2 -0.9,1.7 -1.3,3.2 -1,3.4 -0.7,1.5 -1.1,1.5 -4.4,4.7 -4.6,6.5 -19.7,2.8 -4.3,1.5 -10.7,6.6 -1.3,0.5 -1.8,0.5 -3.5,0.5 -1.9,-0.1 -1.3,-0.2 -8.3,-4.1 -3.2,-1 -2.1,-0.1 -1.5,0.1 -14,9.3 -1.5,1.2 -1,1.1 -0.4,1 -2,6.1 -1.4,2.7 -1.2,1.5 -1.6,0.7 -7.8,1.8 -2.7,0.1 -1.8,-0.2 -6.9,-3.9 -1.8,-0.6 -1.6,-0.2 -2.3,-0.1 -4.7,0.3 -2.6,0.7 -2,0.8 -1.6,1 -1.6,2.9 -2.8,9.7 -1.1,-2.5 -0.8,-1.1 -8.7,-9.4 -0.3,-0.9 v -1.2 l 0.6,-1.6 0.8,-1 0.8,-0.6 3,-1.6 0.7,-0.6 0.6,-0.8 0.5,-0.9 0.3,-1.8 0.7,-12.6 -0.2,-1.8 -0.8,-2.8 -2.8,-7.3 -0.3,-1 v -1.2 l 0.4,-1.4 0.4,-1.1 3.4,-6.1 0.4,-0.9 0.3,-1.6 0.1,-2.1 -0.7,-7.9 -4.8,-22.8 -2.1,-6.1 1.9,-1.6 1.3,-1.4 0.6,-0.8 0.5,-0.8 0.4,-0.9 0.4,-1 0.3,-1.1 0.1,-1.2 0.9,-17.6 -0.3,-1.7 -0.7,-2 -2.7,-5.3 -2.4,-3.6 -8.9,-32.9 -2.4,-5 12.4,0.3 1.2,-0.3 1.5,-0.7 2,-1.6 0.9,-1.3 0.4,-1.3 -0.1,-4.7 -0.5,-4.4 -0.1,-1.2 0.1,-1.1 0.4,-0.9 0.9,-0.5 1.5,0.4 1,0.5 1.3,1.4 0.8,0.6 2.3,1.6 1.9,0.9 1,0.2 1.2,0.2 7.3,-0.9 h 1.2 l 1.1,0.3 0.7,0.5 0.6,0.7 0.5,0.8 0.4,0.9 1.2,3.8 0.4,0.8 0.5,0.8 0.7,0.5 0.9,0.5 1,0.4 1.1,0.2 8.9,-0.7 4.4,0.5 7.6,2.3 1.2,-0.1 1.2,-0.5 1.5,-1.4 3.3,-2.4 0.9,-1.1 0.5,-1.1 0.4,-2.2 0.4,-1 0.8,-0.7 1.5,-0.6 5.3,-0.5 8.2,-1.6 h 1.1 l 1.2,0.1 1,0.3 2.6,1.4 0.9,0.4 1.1,0.2 2.3,0.1 1.1,-0.1 5.3,-1.7 9.7,-4.4 4.1,-2.7 1.5,-1.3 1,-1.2 0.5,-0.8 0.8,-0.7 1.1,-0.5 1.9,-0.3 1.5,0.1 5.8,1 h 1.1 l 3.6,-1.5 30,-17 3.1,-4 1.3,-1.4 8.6,-4.5 3.5,-2.3 3.5,-1.7 1.4,0.1 1.1,0.3 2.6,1.4 1,0.3 1.1,0.1 1.7,-0.8 2.1,-1.6 8.7,-8.3 2.6,-1.8 z"
     id="UYFD"
     name="Florida"
     style="fill:#ff0000;stroke:#000000;stroke-opacity:1;stroke-width:7.3;stroke-miterlimit:4;stroke-dasharray:none" />
  <path
     d="m 759.1,668.1 -0.8,0.8 -0.9,0.7 -1.1,0.6 -3.7,0.6 -3.7,0.1 -2.8,1.3 -3.4,11.6 -5.9,5.4 -12.6,7.4 -3.4,3.7 -1.4,2.9 -0.7,3.9 1.5,10.8 -0.3,1.6 -0.7,2.1 -3.5,5.7 -1,1.3 -0.6,1.1 -0.5,1.6 -0.6,3 -0.3,5.7 -0.4,2.2 -0.6,1.2 -4.8,5.5 -3.8,6.1 -6.6,5 -1.7,2.6 -0.3,1.1 -0.2,1.2 -1.3,4.3 -2,4.3 -1.2,1.9 -1.2,1.2 -3.6,1.4 -7.7,1 -1.6,0.6 -1.9,0.9 -3.3,2.2 -1.5,1.4 -0.9,1.2 -0.4,1 -0.7,1.5 -4.5,6.9 -2.3,5.3 -3.4,5.8 -0.5,1.5 0.1,0.6 0.4,1.4 0.1,0.6 0.1,0.8 v 1 l -0.1,1.1 -0.3,1 -0.5,3.9 -0.6,1.9 -0.7,1.2 -1.1,0.9 -1.4,1.1 -0.9,1 -0.5,1.1 -2.7,9.5 -0.5,2.3 -0.3,4.1 -0.5,1.9 -0.7,1 -0.9,0.6 -2.8,1.4 -2.4,2 -1.4,1 -1.4,0.5 -2.8,0.4 -4.9,2.6 -1.9,0.6 -3.4,0.4 -2.1,1.2 -2.9,2.2 -8.7,8.2 -1.9,1.5 -1,0.3 -2.1,0.3 -4.9,-0.4 -2.3,0.1 -1.1,0.2 -1.9,0.6 -17.8,15.2 -1.2,0.7 -3.7,1.8 -4.1,1 -21.2,1.2 V 882 l -0.9,-2.8 -2.5,-4.9 -6.5,-8 -0.9,-1.5 -0.3,-0.8 -0.2,-4.1 0.1,-1.7 1.9,-9.5 0.1,-1.2 -0.2,-1.6 -0.6,-1.8 -6.5,-12.2 -2.1,-6.2 -4.3,-17.3 4.6,-6.5 4.4,-4.7 1.1,-1.5 0.7,-1.5 1,-3.4 1.3,-3.2 0.9,-1.7 0.8,-1.2 1.8,-2 7.6,-6.7 1,-1.2 0.7,-1.1 0.3,-1 0.2,-1.2 v -1 -1.4 -0.1 l 0.6,-2.4 0.7,-1.2 1.1,-1.5 1.8,-1.9 1.7,-2.4 2,-5.1 1.3,-2.3 0.6,-0.7 1.4,-1.3 3.1,-2 2,-1.8 0.9,-1.4 0.5,-1.4 0.4,-6.2 0.6,-1.9 5.3,-12.2 0.6,-2.4 0.4,-4.9 v -1.2 -1.1 l -0.2,-1 -0.4,-1 -0.4,-0.8 -3.9,-6.3 -0.5,-0.9 -0.3,-0.9 -0.2,-1.3 0.1,-1.7 0.5,-3 0.6,-1.5 0.8,-1 0.7,-0.6 1.8,-0.7 5,-1.3 1.7,-0.7 1,-0.7 1.1,-0.9 1.5,-1.6 0.8,-1.2 2.8,-7.8 1,-2.3 0.8,-1.3 0.4,-0.4 0.1,-0.1 0.1,-0.1 0.4,-0.5 1.3,-0.9 1.6,-0.9 5.4,-1.9 0.9,-0.7 1,-1 1.8,-2.3 0.8,-1.6 0.5,-1.5 0.2,-2.5 -0.2,-3.4 -0.2,-1.1 -0.3,-0.9 -0.8,-1.6 -1,-1.5 7.7,-4.5 3,-1.4 8.2,-1.4 0.8,-0.1 0.5,0.2 1.5,0.8 3.1,0.9 0.9,0.5 0.6,0.6 1.1,0.7 1.4,0.6 2.7,0.4 1.6,-0.1 1.2,-0.3 7,-3.6 4.1,-1.6 1.5,-0.1 1.2,0.2 2.4,0.9 2,0.5 1.2,0.5 1,0.7 4.3,4.6 5.4,3.7 4.7,1.3 12.8,2.1 1,0.3 0.9,0.4 2.1,1.8 0.8,0.5 10.7,3.4 1.9,0.2 1.4,-0.1 6.2,-2.6 0.8,-0.5 0.7,-0.6 0.6,-0.7 0.5,-0.7 0.8,-1.9 0.5,-2.1 0.3,-1 0.6,-0.8 0.7,-0.6 0.8,-0.5 1.8,-0.7 0.8,-0.5 5.1,-4 1.3,-0.5 4.5,-1.2 h 1.8 l 1.5,0.1 0.9,0.4 0.7,0.6 0.5,0.8 1.6,3.5 2.3,4 2.5,2.7 1.3,1.1 3.4,2 5.7,2.3 4.1,2.7 z"
     id="UYLA"
     name="Lavalleja"
     style="fill:#ff0000;stroke:#000000;stroke-opacity:1;stroke-width:7.3;stroke-miterlimit:4;stroke-dasharray:none" />
  <g
     id="points">
    <circle
       class="-34.72957592382879|-58.17293489420778"
       cx="123.4"
       cy="907.9"
       id="0" />
    <circle
       class="-32.77896282272151|-55.50867237849194"
       cx="541.8"
       cy="539.3"
       id="1" />
    <circle
       class="-30.340696446337397|-53.377262365919265"
       cx="876.6"
       cy="89.8"
       id="2" />
  </g>
  <g
     id="label_points">
    <circle
       class="Paysandú"
       cx="222.7"
       cy="405.5"
       id="circle26" />
    <circle
       class="Artigas"
       cx="315.3"
       cy="141.7"
       id="circle28" />
    <circle
       class="Salto"
       cx="322.4"
       cy="288.3"
       id="circle30" />
    <circle
       class="Rivera"
       cx="560.4"
       cy="299.3"
       id="circle32" />
    <circle
       class="Rocha"
       cx="779.6"
       cy="749.8"
       id="circle34" />
    <circle
       class="Treinta y Tres"
       cx="736.5"
       cy="591.5"
       id="circle36" />
    <circle
       class="Cerro Largo"
       cx="752.5"
       cy="455"
       id="circle38" />
    <circle
       class="Maldonado"
       cx="644.8"
       cy="895.1"
       id="circle40" />
    <circle
       class="Canelones"
       cx="477.1"
       cy="872.1"
       id="circle42" />
    <circle
       class="Montevideo"
       cx="440"
       cy="925.7"
       id="circle44" />
    <circle
       class="San José"
       cx="346.7"
       cy="836.1"
       id="circle46" />
    <circle
       class="Colonia"
       cx="196.3"
       cy="805.3"
       id="circle48" />
    <circle
       class="Soriano"
       cx="192.3"
       cy="672.1"
       id="circle50" />
    <circle
       class="Río Negro"
       cx="254.9"
       cy="535.6"
       id="circle52" />
    <circle
       class="Tacuarembó"
       cx="497.2"
       cy="421.9"
       id="circle54" />
    <circle
       class="Durazno"
       cx="487.9"
       cy="586.3"
       id="circle56" />
    <circle
       class="Flores"
       cx="331.2"
       cy="694"
       id="circle58" />
    <circle
       class="Florida"
       cx="485.3"
       cy="735.1"
       id="circle60" />
    <circle
       class="Lavalleja"
       cx="624.4"
       cy="749.3"
       id="circle62" />
  </g>
</svg>
